<?xml version="1.0" encoding="utf-8"?>
<!-- Generator: Adobe Illustrator 18.0.0, SVG Export Plug-In . SVG Version: 6.00 Build 0)  -->
<!DOCTYPE svg PUBLIC "-//W3C//DTD SVG 1.1//EN" "http://www.w3.org/Graphics/SVG/1.1/DTD/svg11.dtd">
<svg version="1.1" id="Layer_1" xmlns="http://www.w3.org/2000/svg" xmlns:xlink="http://www.w3.org/1999/xlink" x="0px" y="0px"
	 viewBox="0 0 792 612" enable-background="new 0 0 792 612" xml:space="preserve">
<g>
	<g>
		<path fill="#1C2D4E" d="M563.3,305.4c0,91.1-73.8,164.9-164.9,164.9c-91,0-164.9-73.8-164.9-164.9c0-91,73.8-164.9,164.9-164.9
			C489.5,140.6,563.3,214.4,563.3,305.4z"/>
		<path fill="#55A043" d="M331.4,275.2c0,0,17.2-169.6,25-171.1h84L331.4,275.2z"/>
		<path fill="#FACE4F" d="M333.6,328c0,0-111.9-133.1-107.5-139.8l58.5-60.3L333.6,328z"/>
		<path fill="#F08750" d="M367.2,367.9c0,0-170.2-9.3-172-17l-3.9-84L367.2,367.9z"/>
		<path fill="#C91768" d="M424.7,376c0,0-133.7,105.7-140.2,101.1L226,416.7L424.7,376z"/>
		<path fill="#912054" d="M463,336.1c0,0-17.2,169.6-25,171.1h-84L463,336.1z"/>
		<path fill="#288CC4" d="M463,282.7c0,0,109.7,130.5,105.3,137.1l-58.6,60.3L463,282.7z"/>
		<path fill="#16A8C7" d="M424.7,246.9c0,0,170.2,9.3,172,17l3.9,84L424.7,246.9z"/>
		<path fill="#9EC445" d="M379.2,240.3c0,0,133.7-105.7,140.2-101.1l58.5,60.3L379.2,240.3z"/>
		<polygon fill="#EDAE30" points="331.4,325.4 310.2,157.7 284.7,127.9 		"/>
		<polygon fill="#E26B4C" points="365,373.4 231.5,269.9 191.3,266.9 		"/>
		<polygon fill="#B21F68" points="429.4,376 256.5,391.5 226,416.7 		"/>
		<polygon fill="#6E1F4D" points="465.7,337.8 358.1,468.1 354,507.1 		"/>
		<polygon fill="#0C62AA" points="467.9,279.9 484.1,448.1 509.8,480.1 		"/>
		<polygon fill="#1C879E" points="427.2,242 561.2,345 600.3,347.8 		"/>
		<polygon fill="#789332" points="372,242 548.2,225 577.9,199.3 		"/>
		<polygon fill="#2E8140" points="329,277.2 437.6,143.3 440.5,104.1 		"/>
	</g>
	<path fill="#FFFFFF" d="M485.8,309.7c0,48.9-39.6,88.5-88.5,88.5c-48.9,0-88.5-39.6-88.5-88.5c0-48.9,39.6-88.5,88.5-88.5
		C446.2,221.2,485.8,260.8,485.8,309.7z"/>
	<g>
		<path fill="#1C2D4E" d="M465,322.2h-15.9v-12.6h-5.8v-9.9h-3.8v-23h-3.9v23h-3.8v9.9H426v12.6h-9.4v-24h-6.8V291h-12.3v-22h-6.3
			v22h-2.2v7.3h-19.2v24H355v-10.7h1.1l3.1-6.3h-25.4l3.1,6.3h1.1v10.7h-8.4l9.7,28c0.3,0.1,0.7,0.1,1.2,0.1c0.5,0,0.8,0,1.2-0.1
			h26.1c0.3,0.1,0.7,0.1,1.1,0.1c0.5,0,0.8,0,1.1-0.1h26.1c0.3,0.1,0.7,0.1,1.2,0.1c0.5,0,0.8,0,1.1-0.1h26.1
			c0.3,0.1,0.7,0.1,1.2,0.1c0.5,0,0.8,0,1.1-0.1h17.9l3.3-3.3l0.1-0.7L465,322.2z"/>
	</g>
</g>
</svg>
