<?xml version="1.0" encoding="utf-8"?>
<!-- Generator: Adobe Illustrator 18.0.0, SVG Export Plug-In . SVG Version: 6.00 Build 0)  -->
<!DOCTYPE svg PUBLIC "-//W3C//DTD SVG 1.1//EN" "http://www.w3.org/Graphics/SVG/1.1/DTD/svg11.dtd">
<svg version="1.1" id="Layer_1" xmlns="http://www.w3.org/2000/svg" xmlns:xlink="http://www.w3.org/1999/xlink" x="0px" y="0px"
	 viewBox="0 0 792 612" enable-background="new 0 0 792 612" xml:space="preserve">
<g>
	<g>
		<circle fill="#1C2D4E" cx="202" cy="305.3" r="73.9"/>
		<path fill="#55A043" d="M172,291.8c0,0,7.7-76,11.2-76.7h37.7L172,291.8z"/>
		<path fill="#FACE4F" d="M172.2,313.8c0,0-49.2-58.5-47.2-61.5l26.2-27L172.2,313.8z"/>
		<path fill="#F08750" d="M188,333.3c0,0-76.3-4.1-77.1-7.6l-1.8-37.6L188,333.3z"/>
		<path fill="#C91768" d="M214.4,335.8c0,0-60.6,48.5-63.5,46.4l-26.2-27L214.4,335.8z"/>
		<path fill="#912054" d="M230.9,319.1c0,0-7.7,76-11.2,76.7h-37.7L230.9,319.1z"/>
		<path fill="#288CC4" d="M230.9,295.2c0,0,49.2,58.5,47.2,61.5l-26.2,27L230.9,295.2z"/>
		<path fill="#16A8C7" d="M213.8,279.1c0,0,76.3,4.1,77.1,7.6l1.8,37.6L213.8,279.1z"/>
		<path fill="#9EC445" d="M193.4,276.2c0,0,59.9-47.4,62.9-45.3l26.2,27L193.4,276.2z"/>
		<polygon fill="#EDAE30" points="172,314.3 162.4,239.2 151,225.8 		"/>
		<polygon fill="#E26B4C" points="187,335.8 127.2,289.4 109.1,288.1 		"/>
		<polygon fill="#B21F68" points="214.9,336.7 138.4,343.9 124.7,355.2 		"/>
		<polygon fill="#6E1F4D" points="232.1,319.8 183.9,378.3 182.1,395.8 		"/>
		<polygon fill="#0C62AA" points="233.1,293.9 240.4,369.3 251.9,383.6 		"/>
		<polygon fill="#1C879E" points="214.9,276.9 274.9,323.1 292.5,324.4 		"/>
		<polygon fill="#789332" points="190.1,276.9 269.1,269.3 282.4,257.8 		"/>
		<polygon fill="#2E8140" points="170.9,292.7 219.6,232.7 220.8,215.1 		"/>
	</g>
	<circle fill="#FFFFFF" cx="201.5" cy="306.8" r="39.7"/>
	<g>
		<path fill="#1C2D4E" d="M231.8,312.5h-7.1v-5.6h-2.6v-4.5h-1.7v-10.3h-1.8v10.3h-1.7v4.5h-2.6v5.6h-4.2v-10.8h-3.1v-3.3h-5.5v-9.9
			h-2.8v9.9h-1v3.3h-8.6v10.8h-6.6v-4.8h0.5l1.4-2.8H173l1.4,2.8h0.5v4.8h-3.8l4.3,12.6c0.1,0,0.3,0.1,0.5,0.1c0.2,0,0.4,0,0.5-0.1
			h11.7c0.1,0,0.3,0.1,0.5,0.1c0.2,0,0.4,0,0.5-0.1H201c0.1,0,0.3,0.1,0.5,0.1c0.2,0,0.4,0,0.5-0.1h11.7c0.1,0,0.3,0.1,0.5,0.1
			s0.4,0,0.5-0.1h8l1.5-1.5l0-0.3L231.8,312.5z"/>
	</g>
	<text transform="matrix(1 0 0 1 317.6891 284.4312)" fill="#FFFFFF" font-family="'Exo-Regular'" font-size="32.437">Asociación de</text>
	<text transform="matrix(1 0 0 1 317.6901 364.2943)" fill="#FFFFFF" font-family="'Exo-ExtraBold'" font-size="38.5431">LÁZARO CÁRDENAS</text>
	<text transform="matrix(1 0 0 1 317.6901 316.0403)" fill="#FFFFFF" font-family="'Exo-Regular'" font-size="32.437">Agentes Aduanales</text>
</g>
</svg>
